<?xml version="1.0"?>
<svg xmlns="http://www.w3.org/2000/svg" xmlns:xlink="http://www.w3.org/1999/xlink" xmlns:svgjs="http://svgjs.com/svgjs" version="1.1" width="512" height="512" x="0" y="0" viewBox="0 0 512 512" style="enable-background:new 0 0 512 512" xml:space="preserve" class=""><g><path xmlns="http://www.w3.org/2000/svg" d="m423.164062 67.761719c-46.816406-43.699219-109.023437-67.761719-175.164062-67.761719s-128.347656 24.0625-175.164062 67.761719c-46.96875 43.835937-72.835938 102.164062-72.835938 164.238281 0 32.894531 7.214844 64.6875 21.441406 94.492188 12.984375 27.199218 31.164063 51.464843 54.085938 72.203124l-27.164063 86.917969c-1.957031 6.265625 4.402344 12.230469 10.535157 9.84375l111.0625-43.191406c25.121093 7.789063 51.363281 11.734375 78.039062 11.734375 66.140625 0 128.347656-24.0625 175.164062-67.761719 46.96875-43.835937 72.835938-102.164062 72.835938-164.238281s-25.867188-120.402344-72.835938-164.238281zm0 0" fill="#41b883" data-original="#78d67f" style="" class=""/><path xmlns="http://www.w3.org/2000/svg" d="m280 448c-141.386719 0-256-103.871094-256-232 0-77.796875 42.257812-146.640625 107.097656-188.730469-21.164062 10.609375-40.785156 24.179688-58.261718 40.492188-46.96875 43.835937-72.835938 102.164062-72.835938 164.238281 0 32.894531 7.214844 64.6875 21.441406 94.492188 12.984375 27.199218 31.164063 51.464843 54.085938 72.203124l-27.164063 86.917969c-1.957031 6.261719 4.398438 12.230469 10.535157 9.84375l111.0625-43.191406c25.121093 7.789063 51.363281 11.734375 78.039062 11.734375 45.179688 0 88.519531-11.234375 126.378906-32.28125-29.203125 10.503906-61.046875 16.28125-94.378906 16.28125zm0 0" fill="#41b883" data-original="#65d06c" style="" class=""/><path xmlns="http://www.w3.org/2000/svg" d="m288 232c0-22.054688-17.945312-40-40-40s-40 17.945312-40 40 17.945312 40 40 40 40-17.945312 40-40zm0 0" fill="#f4f5f7" data-original="#f4f5f7" style="" class=""/><path xmlns="http://www.w3.org/2000/svg" d="m272 272h-48c-17.644531 0-32 14.355469-32 32v56c0 4.417969 3.582031 8 8 8h96c4.417969 0 8-3.582031 8-8v-56c0-17.644531-14.355469-32-32-32zm0 0" fill="#f4f5f7" data-original="#f4f5f7" style="" class=""/><path xmlns="http://www.w3.org/2000/svg" d="m232 232c0-17.878906 11.789062-33.050781 28-38.15625-3.789062-1.195312-7.820312-1.84375-12-1.84375-22.054688 0-40 17.945312-40 40s17.945312 40 40 40c4.179688 0 8.210938-.648438 12-1.84375-16.210938-5.105469-28-20.277344-28-38.15625zm0 0" fill="#eaebef" data-original="#eaebef" style="" class=""/><path xmlns="http://www.w3.org/2000/svg" d="m216 360v-56c0-17.644531 14.355469-32 32-32h-24c-17.644531 0-32 14.355469-32 32v56c0 4.417969 3.582031 8 8 8h24c-4.417969 0-8-3.582031-8-8zm0 0" fill="#eaebef" data-original="#eaebef" style="" class=""/><path xmlns="http://www.w3.org/2000/svg" d="m408 160c0-22.054688-17.945312-40-40-40s-40 17.945312-40 40 17.945312 40 40 40 40-17.945312 40-40zm0 0" fill="#f4f5f7" data-original="#f4f5f7" style="" class=""/><path xmlns="http://www.w3.org/2000/svg" d="m392 200h-48c-17.644531 0-32 14.355469-32 32v56c0 4.417969 3.582031 8 8 8h96c4.417969 0 8-3.582031 8-8v-56c0-17.644531-14.355469-32-32-32zm0 0" fill="#f4f5f7" data-original="#f4f5f7" style="" class=""/><path xmlns="http://www.w3.org/2000/svg" d="m352 160c0-17.878906 11.789062-33.050781 28-38.15625-3.789062-1.195312-7.820312-1.84375-12-1.84375-22.054688 0-40 17.945312-40 40s17.945312 40 40 40c4.179688 0 8.210938-.648438 12-1.84375-16.210938-5.105469-28-20.277344-28-38.15625zm0 0" fill="#eaebef" data-original="#eaebef" style="" class=""/><path xmlns="http://www.w3.org/2000/svg" d="m336 288v-56c0-17.644531 14.355469-32 32-32h-24c-17.644531 0-32 14.355469-32 32v56c0 4.417969 3.582031 8 8 8h24c-4.417969 0-8-3.582031-8-8zm0 0" fill="#eaebef" data-original="#eaebef" style="" class=""/><path xmlns="http://www.w3.org/2000/svg" d="m168 160c0-22.054688-17.945312-40-40-40s-40 17.945312-40 40 17.945312 40 40 40 40-17.945312 40-40zm0 0" fill="#f4f5f7" data-original="#f4f5f7" style="" class=""/><path xmlns="http://www.w3.org/2000/svg" d="m152 200h-48c-17.644531 0-32 14.355469-32 32v56c0 4.417969 3.582031 8 8 8h96c4.417969 0 8-3.582031 8-8v-56c0-17.644531-14.355469-32-32-32zm0 0" fill="#f4f5f7" data-original="#f4f5f7" style="" class=""/><path xmlns="http://www.w3.org/2000/svg" d="m112 160c0-17.878906 11.789062-33.050781 28-38.15625-3.789062-1.195312-7.820312-1.84375-12-1.84375-22.054688 0-40 17.945312-40 40s17.945312 40 40 40c4.179688 0 8.210938-.648438 12-1.84375-16.210938-5.105469-28-20.277344-28-38.15625zm0 0" fill="#eaebef" data-original="#eaebef" style="" class=""/><path xmlns="http://www.w3.org/2000/svg" d="m96 288v-56c0-17.644531 14.355469-32 32-32h-24c-17.644531 0-32 14.355469-32 32v56c0 4.417969 3.582031 8 8 8h24c-4.417969 0-8-3.582031-8-8zm0 0" fill="#eaebef" data-original="#eaebef" style="" class=""/><path xmlns="http://www.w3.org/2000/svg" d="m391 368c-39.699219 0-72 32.300781-72 72s32.300781 72 72 72 72-32.300781 72-72-32.300781-72-72-72zm0 0" fill="#fb675f" data-original="#fb675f" style=""/><path xmlns="http://www.w3.org/2000/svg" d="m416 496c-39.699219 0-72-32.300781-72-72 0-20.097656 8.285156-38.289062 21.609375-51.363281-27.207031 10.289062-46.609375 36.597656-46.609375 67.363281 0 39.699219 32.300781 72 72 72 19.601562 0 37.390625-7.882812 50.390625-20.636719-7.902344 2.988281-16.457031 4.636719-25.390625 4.636719zm0 0" fill="#fa544b" data-original="#fa544b" style=""/><path xmlns="http://www.w3.org/2000/svg" d="m392 472c-4.417969 0-8-3.582031-8-8v-28.6875l-2.34375 2.34375c-3.125 3.125-8.1875 3.125-11.3125 0s-3.125-8.1875 0-11.3125l16-16c2.289062-2.289062 5.726562-2.976562 8.71875-1.734375 2.988281 1.238281 4.9375 4.15625 4.9375 7.390625v48c0 4.417969-3.582031 8-8 8zm0 0" fill="#f4f5f7" data-original="#f4f5f7" style="" class=""/></g></svg>
